<?xml version="1.0" standalone="no"?>
<!DOCTYPE svg PUBLIC "-//W3C//DTD SVG 1.1//EN" "http://www.w3.org/Graphics/SVG/1.1/DTD/svg11.dtd">
<svg xmlns="http://www.w3.org/2000/svg" xmlns:xlink="http://www.w3.org/1999/xlink" id="Camada_1" viewBox="0 0 200 100" width="200" height="100"><defs><style>.cls-1{fill:#fff;}.cls-2{fill:#2da837;}.cls-3{fill:url(#Gradiente_sem_nome_2);}.cls-4{fill:url(#Gradiente_sem_nome_2-2);}</style><linearGradient id="Gradiente_sem_nome_2" x1="93.45" y1="653.02" x2="93.45" y2="698.64" gradientTransform="translate(0 701) scale(1 -1)" gradientUnits="userSpaceOnUse"><stop offset="0" stop-color="#138f38"/><stop offset=".31" stop-color="#128b37"/><stop offset=".57" stop-color="#128034"/><stop offset=".83" stop-color="#116f30"/><stop offset="1" stop-color="#115e2c"/></linearGradient><linearGradient id="Gradiente_sem_nome_2-2" x1="123.95" x2="123.95" xlink:href="#Gradiente_sem_nome_2"/></defs><polygon class="cls-2" points="93.05 47.98 106.57 2.36 121.26 2.36 108.05 47.98 93.05 47.98"/><polygon class="cls-2" points="65.8 47.98 79.32 2.36 94.01 2.36 80.8 47.98 65.8 47.98"/><polygon class="cls-3" points="94 2.36 100.27 23.62 93.05 47.98 86.63 27.83 94 2.36"/><polygon class="cls-4" points="121.25 2.36 134.2 47.98 119.59 47.98 113.7 28.49 121.25 2.36"/><path class="cls-1" d="m8.57,77.41v-22.18h6.07l5.73,8.09,5.7-8.09h6.01v22.18h-6.31v-7.23c0-1.75.03-3.68.06-5.21l-.06-.03c-.92,1.41-1.93,2.85-2.91,4.26l-2.63,3.74-2.67-3.74c-1.01-1.41-1.99-2.85-2.91-4.26l-.06.03c.03,1.53.06,3.46.06,5.21v7.23h-6.07Z"/><path class="cls-1" d="m42.87,55.23h6.22l8.98,22.18h-6.86l-1.56-4.53h-7.6l-1.62,4.53h-6.52l8.98-22.18h0Zm3,6.74c-.43,1.41-.86,2.7-1.38,4.14l-.77,2.12h4.29l-.74-2.12c-.52-1.5-.92-2.76-1.35-4.14,0,0-.06,0-.06,0Z"/><path class="cls-1" d="m70.28,54.89c2.6,0,4.99.64,6.83,1.56v6.1c-1.96-1.19-4.35-2.05-6.59-2.05-3.95,0-6.37,2.6-6.37,5.94s2.36,5.97,6.25,5.97c.46,0,1.01-.06,1.35-.15v-2.36h-3.03v-4.63h9.13v10.88c-2.05.98-4.78,1.59-7.45,1.59-7.54,0-12.56-4.84-12.56-11.31s5.24-11.55,12.44-11.55h0Z"/><path class="cls-1" d="m81.2,55.23h6.31v22.18h-6.31v-22.18Z"/><path class="cls-1" d="m91.1,70.3c2.7,1.53,5.76,2.2,7.29,2.2,1.29,0,2.2-.46,2.2-1.59,0-1.59-1.77-1.59-4.6-2.57-3.37-1.17-5.7-2.82-5.7-6.4,0-4.32,3.34-7.05,8.3-7.05,2.3,0,5.15.58,7.23,1.62v5.82c-2.67-1.5-5.61-2.2-7.17-2.2-1.16,0-1.96.37-1.96,1.35,0,1.44,1.72,1.44,4.41,2.39,3.46,1.23,5.88,2.94,5.88,6.68,0,4.47-3.52,7.2-8.67,7.2-2.27,0-5.08-.52-7.23-1.53v-5.91h0Z"/><path class="cls-1" d="m114.73,60.56h-7.04v-5.33h20.41v5.33h-7.05v16.85h-6.31v-16.85h0Z"/><path class="cls-1" d="m130.03,55.23h7.75c2.7,0,4.69.34,6.22,1.1,2.15,1.04,3.58,2.91,3.58,5.79,0,2.73-1.32,4.81-4.07,5.97l5.88,9.31h-7.14l-4.93-8.43h-.98v8.43h-6.31v-22.18h0Zm7.87,9.44c1.17,0,1.99-.15,2.48-.46.58-.34.89-.92.89-1.75,0-.95-.43-1.53-1.07-1.84-.52-.24-1.26-.37-2.69-.37h-1.17v4.41h1.56Z"/><path class="cls-1" d="m158.85,55.23h6.22l8.98,22.18h-6.86l-1.56-4.53h-7.6l-1.62,4.53h-6.52l8.98-22.18h0Zm3,6.74c-.43,1.41-.86,2.7-1.38,4.14l-.77,2.12h4.29l-.74-2.12c-.52-1.5-.92-2.76-1.35-4.14,0,0-.06,0-.06,0Z"/><path class="cls-1" d="m175.86,55.23h6.31v16.85h9.25v5.33h-15.57v-22.18h0Z"/><path class="cls-1" d="m54.12,86.98c1.03,0,2.03.21,2.86.59v2.89c-.76-.47-1.79-.86-2.8-.86-1.74,0-2.92,1.13-2.92,2.7s1.09,2.73,2.97,2.73c1.02,0,2.02-.36,2.89-.9v2.9c-.92.43-2.02.61-3,.61-3.47,0-5.8-2.32-5.8-5.32s2.42-5.35,5.8-5.35Z"/><path class="cls-1" d="m65.02,86.98c3.12,0,5.53,2.34,5.53,5.33s-2.42,5.33-5.53,5.33-5.53-2.34-5.53-5.33,2.42-5.33,5.53-5.33Zm0,8.02c1.46,0,2.59-1.19,2.59-2.69s-1.13-2.69-2.59-2.69-2.59,1.19-2.59,2.69,1.13,2.69,2.59,2.69Z"/><path class="cls-1" d="m77.67,93.74c-.57-.77-1.07-1.47-1.59-2.22h-.03c.01.89.03,1.77.03,2.65v3.32h-2.83v-10.35h2.76l2.75,3.75c.57.77,1.07,1.47,1.59,2.22h.03c-.01-.89-.03-1.77-.03-2.65v-3.32h2.83v10.35h-2.76l-2.75-3.75Z"/><path class="cls-1" d="m91.67,86.98c1.03,0,2.03.21,2.86.59v2.89c-.76-.47-1.79-.86-2.8-.86-1.74,0-2.92,1.13-2.92,2.7s1.09,2.73,2.97,2.73c1.02,0,2.02-.36,2.89-.9v2.9c-.92.43-2.02.61-3,.61-3.47,0-5.8-2.32-5.8-5.32s2.42-5.35,5.8-5.35Z"/><path class="cls-1" d="m97.31,92.58v-5.45h2.95v5.28c0,1,.11,1.59.4,1.99.29.4.79.69,1.5.69.64,0,1.12-.23,1.42-.6.33-.4.49-1.06.49-2.07v-5.28h2.83v5.45c0,1.57-.3,2.66-.87,3.42-.77,1.03-2.19,1.64-3.92,1.64s-3.19-.59-3.98-1.69c-.54-.76-.81-1.86-.81-3.37Z"/><path class="cls-1" d="m109.86,87.14h3.62c1.26,0,2.19.16,2.9.51,1,.49,1.67,1.36,1.67,2.7,0,1.27-.61,2.24-1.9,2.79l2.75,4.35h-3.33l-2.3-3.93h-.46v3.93h-2.95v-10.35Zm3.67,4.4c.54,0,.93-.07,1.16-.21.27-.16.41-.43.41-.81,0-.44-.2-.71-.5-.86-.24-.11-.59-.17-1.26-.17h-.54v2.06h.73Z"/><path class="cls-1" d="m120.85,94.17c1.26.71,2.69,1.03,3.4,1.03.6,0,1.03-.21,1.03-.74,0-.74-.83-.74-2.14-1.2-1.57-.54-2.66-1.32-2.66-2.99,0-2.02,1.56-3.29,3.87-3.29,1.07,0,2.4.27,3.37.76v2.72c-1.24-.7-2.62-1.03-3.35-1.03-.54,0-.92.17-.92.63,0,.67.8.67,2.06,1.12,1.62.57,2.75,1.37,2.75,3.12,0,2.09-1.64,3.36-4.05,3.36-1.06,0-2.37-.24-3.37-.71v-2.76Z"/><path class="cls-1" d="m136,86.98c3.12,0,5.53,2.34,5.53,5.33s-2.42,5.33-5.53,5.33-5.53-2.34-5.53-5.33,2.42-5.33,5.53-5.33Zm0,8.02c1.46,0,2.59-1.19,2.59-2.69s-1.13-2.69-2.59-2.69-2.59,1.19-2.59,2.69,1.13,2.69,2.59,2.69Z"/><path class="cls-1" d="m144.27,94.17c1.26.71,2.69,1.03,3.4,1.03.6,0,1.03-.21,1.03-.74,0-.74-.83-.74-2.14-1.2-1.57-.54-2.66-1.32-2.66-2.99,0-2.02,1.56-3.29,3.87-3.29,1.07,0,2.4.27,3.37.76v2.72c-1.24-.7-2.62-1.03-3.35-1.03-.54,0-.92.17-.92.63,0,.67.8.67,2.06,1.12,1.62.57,2.75,1.37,2.75,3.12,0,2.09-1.64,3.36-4.05,3.36-1.06,0-2.37-.24-3.37-.71v-2.76Z"/></svg>